<svg width="355" height="205" viewBox="0 0 355 205" fill="none" xmlns="http://www.w3.org/2000/svg">
<g clip-path="url(#clip0_187_68)">
<path d="M343.089 12.574C344.67 12.574 345.951 11.2942 345.951 9.71551C345.951 8.13683 344.67 6.85706 343.089 6.85706C341.508 6.85706 340.226 8.13683 340.226 9.71551C340.226 11.2942 341.508 12.574 343.089 12.574Z" fill="#F2F2F2"/>
<path d="M331.68 12.574C333.261 12.574 334.543 11.2942 334.543 9.71551C334.543 8.13683 333.261 6.85706 331.68 6.85706C330.099 6.85706 328.818 8.13683 328.818 9.71551C328.818 11.2942 330.099 12.574 331.68 12.574Z" fill="#F2F2F2"/>
<path d="M320.272 12.574C321.853 12.574 323.134 11.2942 323.134 9.71551C323.134 8.13683 321.853 6.85706 320.272 6.85706C318.691 6.85706 317.409 8.13683 317.409 9.71551C317.409 11.2942 318.691 12.574 320.272 12.574Z" fill="#F2F2F2"/>
<path d="M308.864 12.574C310.444 12.574 311.726 11.2942 311.726 9.71551C311.726 8.13683 310.444 6.85706 308.864 6.85706C307.283 6.85706 306.001 8.13683 306.001 9.71551C306.001 11.2942 307.283 12.574 308.864 12.574Z" fill="#F2F2F2"/>
<path d="M343.089 24.5084C344.67 24.5084 345.951 23.2286 345.951 21.65C345.951 20.0713 344.67 18.7915 343.089 18.7915C341.508 18.7915 340.226 20.0713 340.226 21.65C340.226 23.2286 341.508 24.5084 343.089 24.5084Z" fill="#F2F2F2"/>
<path d="M331.68 24.5084C333.261 24.5084 334.543 23.2286 334.543 21.65C334.543 20.0713 333.261 18.7915 331.68 18.7915C330.099 18.7915 328.818 20.0713 328.818 21.65C328.818 23.2286 330.099 24.5084 331.68 24.5084Z" fill="#F2F2F2"/>
<path d="M320.272 24.5084C321.853 24.5084 323.134 23.2286 323.134 21.65C323.134 20.0713 321.853 18.7915 320.272 18.7915C318.691 18.7915 317.409 20.0713 317.409 21.65C317.409 23.2286 318.691 24.5084 320.272 24.5084Z" fill="#F2F2F2"/>
<path d="M308.864 24.5084C310.444 24.5084 311.726 23.2286 311.726 21.65C311.726 20.0713 310.444 18.7915 308.864 18.7915C307.283 18.7915 306.001 20.0713 306.001 21.65C306.001 23.2286 307.283 24.5084 308.864 24.5084Z" fill="#F2F2F2"/>
<path d="M343.089 36.4427C344.67 36.4427 345.951 35.163 345.951 33.5843C345.951 32.0056 344.67 30.7258 343.089 30.7258C341.508 30.7258 340.226 32.0056 340.226 33.5843C340.226 35.163 341.508 36.4427 343.089 36.4427Z" fill="#F2F2F2"/>
<path d="M331.68 36.4427C333.261 36.4427 334.543 35.163 334.543 33.5843C334.543 32.0056 333.261 30.7258 331.68 30.7258C330.099 30.7258 328.818 32.0056 328.818 33.5843C328.818 35.163 330.099 36.4427 331.68 36.4427Z" fill="#F2F2F2"/>
<path d="M320.272 36.4427C321.853 36.4427 323.134 35.163 323.134 33.5843C323.134 32.0056 321.853 30.7258 320.272 30.7258C318.691 30.7258 317.409 32.0056 317.409 33.5843C317.409 35.163 318.691 36.4427 320.272 36.4427Z" fill="#F2F2F2"/>
<path d="M308.864 36.4427C310.444 36.4427 311.726 35.163 311.726 33.5843C311.726 32.0056 310.444 30.7258 308.864 30.7258C307.283 30.7258 306.001 32.0056 306.001 33.5843C306.001 35.163 307.283 36.4427 308.864 36.4427Z" fill="#F2F2F2"/>
<path d="M343.089 48.3772C344.67 48.3772 345.951 47.0974 345.951 45.5187C345.951 43.9401 344.67 42.6603 343.089 42.6603C341.508 42.6603 340.226 43.9401 340.226 45.5187C340.226 47.0974 341.508 48.3772 343.089 48.3772Z" fill="#F2F2F2"/>
<path d="M331.68 48.3772C333.261 48.3772 334.543 47.0974 334.543 45.5187C334.543 43.9401 333.261 42.6603 331.68 42.6603C330.099 42.6603 328.818 43.9401 328.818 45.5187C328.818 47.0974 330.099 48.3772 331.68 48.3772Z" fill="#F2F2F2"/>
<path d="M320.272 48.3772C321.853 48.3772 323.134 47.0974 323.134 45.5187C323.134 43.9401 321.853 42.6603 320.272 42.6603C318.691 42.6603 317.409 43.9401 317.409 45.5187C317.409 47.0974 318.691 48.3772 320.272 48.3772Z" fill="#F2F2F2"/>
<path d="M308.864 48.3772C310.444 48.3772 311.726 47.0974 311.726 45.5187C311.726 43.9401 310.444 42.6603 308.864 42.6603C307.283 42.6603 306.001 43.9401 306.001 45.5187C306.001 47.0974 307.283 48.3772 308.864 48.3772Z" fill="#F2F2F2"/>
<path d="M343.089 60.3115C344.67 60.3115 345.951 59.0317 345.951 57.4531C345.951 55.8744 344.67 54.5946 343.089 54.5946C341.508 54.5946 340.226 55.8744 340.226 57.4531C340.226 59.0317 341.508 60.3115 343.089 60.3115Z" fill="#F2F2F2"/>
<path d="M331.68 60.3115C333.261 60.3115 334.543 59.0317 334.543 57.4531C334.543 55.8744 333.261 54.5946 331.68 54.5946C330.099 54.5946 328.818 55.8744 328.818 57.4531C328.818 59.0317 330.099 60.3115 331.68 60.3115Z" fill="#F2F2F2"/>
<path d="M320.272 60.3115C321.853 60.3115 323.134 59.0317 323.134 57.4531C323.134 55.8744 321.853 54.5946 320.272 54.5946C318.691 54.5946 317.409 55.8744 317.409 57.4531C317.409 59.0317 318.691 60.3115 320.272 60.3115Z" fill="#F2F2F2"/>
<path d="M308.864 60.3115C310.444 60.3115 311.726 59.0317 311.726 57.4531C311.726 55.8744 310.444 54.5946 308.864 54.5946C307.283 54.5946 306.001 55.8744 306.001 57.4531C306.001 59.0317 307.283 60.3115 308.864 60.3115Z" fill="#F2F2F2"/>
<path d="M343.089 72.246C344.67 72.246 345.951 70.9662 345.951 69.3875C345.951 67.8088 344.67 66.5291 343.089 66.5291C341.508 66.5291 340.226 67.8088 340.226 69.3875C340.226 70.9662 341.508 72.246 343.089 72.246Z" fill="#F2F2F2"/>
<path d="M331.68 72.246C333.261 72.246 334.543 70.9662 334.543 69.3875C334.543 67.8088 333.261 66.5291 331.68 66.5291C330.099 66.5291 328.818 67.8088 328.818 69.3875C328.818 70.9662 330.099 72.246 331.68 72.246Z" fill="#F2F2F2"/>
<path d="M320.272 72.246C321.853 72.246 323.134 70.9662 323.134 69.3875C323.134 67.8088 321.853 66.5291 320.272 66.5291C318.691 66.5291 317.409 67.8088 317.409 69.3875C317.409 70.9662 318.691 72.246 320.272 72.246Z" fill="#F2F2F2"/>
<path d="M308.864 72.246C310.444 72.246 311.726 70.9662 311.726 69.3875C311.726 67.8088 310.444 66.5291 308.864 66.5291C307.283 66.5291 306.001 67.8088 306.001 69.3875C306.001 70.9662 307.283 72.246 308.864 72.246Z" fill="#F2F2F2"/>
<path d="M338.216 197.121C340.283 192.664 342.347 188.141 343.244 183.311C344.141 178.482 343.765 173.241 341.196 169.052C338.628 164.864 333.57 162.023 328.744 162.97C324.78 163.748 321.597 166.865 319.733 170.445C317.87 174.024 317.122 178.06 316.397 182.029C316.163 177.52 315.915 172.939 314.415 168.68C312.915 164.421 309.962 160.452 305.752 158.804C301.543 157.156 296.068 158.452 293.85 162.386C290.724 167.928 294.868 175.702 291.275 180.953C290.658 175.686 285.142 171.524 279.899 172.371C274.656 173.218 270.736 178.905 271.814 184.098C272.456 187.187 274.567 189.816 277.091 191.714C279.616 193.613 282.551 195.814 285.455 197.058L338.216 197.121Z" fill="#F2F2F2"/>
<path d="M274.567 176.093C278.732 177.546 282.934 179.016 286.736 181.289C290.144 183.326 293.178 186.068 295.094 189.58C296.144 191.464 296.768 193.555 296.921 195.705C296.948 196.155 297.653 196.158 297.625 195.705C297.379 191.7 295.424 188.035 292.718 185.137C289.75 181.959 285.905 179.788 281.934 178.104C279.58 177.105 277.168 176.257 274.754 175.414C274.325 175.265 274.141 175.944 274.567 176.093H274.567Z" fill="white"/>
<path d="M298.588 159.503C301.147 163.759 303.196 168.301 304.693 173.035C306.193 177.768 307.138 182.658 307.508 187.608C307.714 190.379 307.736 193.16 307.575 195.934C307.549 196.386 308.254 196.385 308.28 195.934C308.564 190.933 308.261 185.915 307.377 180.985C306.494 176.055 305.043 171.243 303.053 166.646C301.935 164.064 300.647 161.559 299.196 159.148C299.148 159.07 299.071 159.015 298.982 158.994C298.893 158.972 298.799 158.986 298.721 159.032C298.642 159.078 298.584 159.153 298.559 159.24C298.534 159.328 298.545 159.422 298.588 159.503Z" fill="white"/>
<path d="M333.07 163.544C329.451 171.664 326.904 180.219 325.494 188.994C325.098 191.459 324.791 193.936 324.574 196.425C324.535 196.876 325.239 196.874 325.279 196.425C326.046 187.67 327.941 179.049 330.917 170.777C331.753 168.452 332.674 166.159 333.679 163.899C333.861 163.489 333.254 163.13 333.07 163.544Z" fill="white"/>
<path d="M354.557 197.003H0.442643C0.325247 197.003 0.212659 196.956 0.129647 196.873C0.0466352 196.79 0 196.678 0 196.561C0 196.444 0.0466352 196.331 0.129647 196.248C0.212659 196.165 0.325247 196.119 0.442643 196.119H354.557C354.675 196.119 354.787 196.165 354.87 196.248C354.953 196.331 355 196.444 355 196.561C355 196.678 354.953 196.79 354.87 196.873C354.787 196.956 354.675 197.003 354.557 197.003Z" fill="#3F3D56"/>
<path d="M183.371 84.2226H121.963C121.081 84.2216 120.234 83.871 119.61 83.2478C118.986 82.6245 118.635 81.7795 118.634 80.8981V3.32458C118.635 2.44315 118.986 1.59811 119.61 0.974851C120.234 0.351589 121.081 0.00100259 121.963 0H183.371C184.253 0.00100377 185.1 0.351591 185.724 0.974858C186.348 1.59812 186.699 2.44317 186.7 3.3246V80.8981C186.699 81.7795 186.348 82.6245 185.724 83.2478C185.1 83.871 184.253 84.2216 183.371 84.2226ZM121.963 0.738817C121.277 0.739585 120.619 1.01226 120.133 1.49702C119.648 1.98178 119.375 2.63904 119.374 3.3246V80.8981C119.375 81.5836 119.648 82.2409 120.133 82.7256C120.619 83.2104 121.277 83.4831 121.963 83.4839H183.371C184.057 83.4831 184.715 83.2104 185.201 82.7256C185.686 82.2409 185.959 81.5836 185.96 80.8981V3.3246C185.959 2.63904 185.686 1.98179 185.201 1.49702C184.715 1.01226 184.057 0.739586 183.371 0.738817H121.963Z" fill="#3F3D56"/>
<path d="M147.559 37.2877H134.042C133.601 37.2872 133.177 37.1119 132.865 36.8002C132.553 36.4886 132.378 36.0661 132.377 35.6254V19.6971C132.378 19.2564 132.553 18.8338 132.865 18.5222C133.177 18.2106 133.601 18.0353 134.042 18.0348H147.559C148 18.0353 148.423 18.2106 148.735 18.5222C149.047 18.8338 149.223 19.2564 149.223 19.6971V35.6254C149.223 36.0661 149.047 36.4886 148.735 36.8002C148.423 37.1119 148 37.2872 147.559 37.2877Z" fill="#27E0A6"/>
<path d="M173.823 44.6756H160.306C159.865 44.6751 159.442 44.4998 159.13 44.1882C158.818 43.8765 158.642 43.454 158.642 43.0133V27.085C158.642 26.6443 158.818 26.2218 159.13 25.9101C159.442 25.5985 159.865 25.4232 160.306 25.4227H173.823C174.265 25.4232 174.688 25.5985 175 25.9101C175.312 26.2218 175.487 26.6443 175.488 27.085V43.0133C175.487 43.454 175.312 43.8765 175 44.1882C174.688 44.4998 174.265 44.6751 173.823 44.6756Z" fill="#CCCCCC"/>
<path d="M152.738 67.2088H139.221C138.779 67.2083 138.356 67.033 138.044 66.7214C137.732 66.4097 137.557 65.9872 137.556 65.5465V49.6182C137.557 49.1775 137.732 48.755 138.044 48.4433C138.356 48.1317 138.779 47.9564 139.221 47.9559H152.738C153.179 47.9564 153.602 48.1317 153.914 48.4433C154.226 48.755 154.402 49.1775 154.402 49.6182V65.5465C154.402 65.9872 154.226 66.4097 153.914 66.7214C153.602 67.033 153.179 67.2083 152.738 67.2088Z" fill="#6DB5E8"/>
<path d="M51.3159 8.08325C52.8968 8.08325 54.1784 6.80347 54.1784 5.22479C54.1784 3.64611 52.8968 2.36633 51.3159 2.36633C49.735 2.36633 48.4534 3.64611 48.4534 5.22479C48.4534 6.80347 49.735 8.08325 51.3159 8.08325Z" fill="#F2F2F2"/>
<path d="M51.3159 19.4753C52.8968 19.4753 54.1784 18.1956 54.1784 16.6169C54.1784 15.0382 52.8968 13.7584 51.3159 13.7584C49.735 13.7584 48.4534 15.0382 48.4534 16.6169C48.4534 18.1956 49.735 19.4753 51.3159 19.4753Z" fill="#F2F2F2"/>
<path d="M51.3159 30.8675C52.8968 30.8675 54.1784 29.5878 54.1784 28.0091C54.1784 26.4304 52.8968 25.1506 51.3159 25.1506C49.735 25.1506 48.4534 26.4304 48.4534 28.0091C48.4534 29.5878 49.735 30.8675 51.3159 30.8675Z" fill="#F2F2F2"/>
<path d="M51.3159 42.2596C52.8968 42.2596 54.1784 40.9799 54.1784 39.4012C54.1784 37.8225 52.8968 36.5427 51.3159 36.5427C49.735 36.5427 48.4534 37.8225 48.4534 39.4012C48.4534 40.9799 49.735 42.2596 51.3159 42.2596Z" fill="#F2F2F2"/>
<path d="M63.2673 8.08325C64.8482 8.08325 66.1298 6.80347 66.1298 5.22479C66.1298 3.64611 64.8482 2.36633 63.2673 2.36633C61.6864 2.36633 60.4048 3.64611 60.4048 5.22479C60.4048 6.80347 61.6864 8.08325 63.2673 8.08325Z" fill="#F2F2F2"/>
<path d="M63.2673 19.4753C64.8482 19.4753 66.1298 18.1956 66.1298 16.6169C66.1298 15.0382 64.8482 13.7584 63.2673 13.7584C61.6864 13.7584 60.4048 15.0382 60.4048 16.6169C60.4048 18.1956 61.6864 19.4753 63.2673 19.4753Z" fill="#F2F2F2"/>
<path d="M63.2673 30.8675C64.8482 30.8675 66.1298 29.5878 66.1298 28.0091C66.1298 26.4304 64.8482 25.1506 63.2673 25.1506C61.6864 25.1506 60.4048 26.4304 60.4048 28.0091C60.4048 29.5878 61.6864 30.8675 63.2673 30.8675Z" fill="#F2F2F2"/>
<path d="M63.2673 42.2596C64.8482 42.2596 66.1298 40.9799 66.1298 39.4012C66.1298 37.8225 64.8482 36.5427 63.2673 36.5427C61.6864 36.5427 60.4048 37.8225 60.4048 39.4012C60.4048 40.9799 61.6864 42.2596 63.2673 42.2596Z" fill="#F2F2F2"/>
<path d="M75.2187 8.08325C76.7997 8.08325 78.0813 6.80347 78.0813 5.22479C78.0813 3.64611 76.7997 2.36633 75.2187 2.36633C73.6378 2.36633 72.3562 3.64611 72.3562 5.22479C72.3562 6.80347 73.6378 8.08325 75.2187 8.08325Z" fill="#F2F2F2"/>
<path d="M75.2187 19.4753C76.7997 19.4753 78.0813 18.1956 78.0813 16.6169C78.0813 15.0382 76.7997 13.7584 75.2187 13.7584C73.6378 13.7584 72.3562 15.0382 72.3562 16.6169C72.3562 18.1956 73.6378 19.4753 75.2187 19.4753Z" fill="#F2F2F2"/>
<path d="M75.2187 30.8675C76.7997 30.8675 78.0813 29.5878 78.0813 28.0091C78.0813 26.4304 76.7997 25.1506 75.2187 25.1506C73.6378 25.1506 72.3562 26.4304 72.3562 28.0091C72.3562 29.5878 73.6378 30.8675 75.2187 30.8675Z" fill="#F2F2F2"/>
<path d="M75.2187 42.2596C76.7997 42.2596 78.0813 40.9799 78.0813 39.4012C78.0813 37.8225 76.7997 36.5427 75.2187 36.5427C73.6378 36.5427 72.3562 37.8225 72.3562 39.4012C72.3562 40.9799 73.6378 42.2596 75.2187 42.2596Z" fill="#F2F2F2"/>
<path d="M87.1701 8.08325C88.7511 8.08325 90.0327 6.80347 90.0327 5.22479C90.0327 3.64611 88.7511 2.36633 87.1701 2.36633C85.5892 2.36633 84.3076 3.64611 84.3076 5.22479C84.3076 6.80347 85.5892 8.08325 87.1701 8.08325Z" fill="#F2F2F2"/>
<path d="M87.1701 19.4753C88.7511 19.4753 90.0327 18.1956 90.0327 16.6169C90.0327 15.0382 88.7511 13.7584 87.1701 13.7584C85.5892 13.7584 84.3076 15.0382 84.3076 16.6169C84.3076 18.1956 85.5892 19.4753 87.1701 19.4753Z" fill="#F2F2F2"/>
<path d="M87.1701 30.8675C88.7511 30.8675 90.0327 29.5878 90.0327 28.0091C90.0327 26.4304 88.7511 25.1506 87.1701 25.1506C85.5892 25.1506 84.3076 26.4304 84.3076 28.0091C84.3076 29.5878 85.5892 30.8675 87.1701 30.8675Z" fill="#F2F2F2"/>
<path d="M87.1701 42.2596C88.7511 42.2596 90.0327 40.9799 90.0327 39.4012C90.0327 37.8225 88.7511 36.5427 87.1701 36.5427C85.5892 36.5427 84.3076 37.8225 84.3076 39.4012C84.3076 40.9799 85.5892 42.2596 87.1701 42.2596Z" fill="#F2F2F2"/>
<path d="M99.1216 8.08325C100.702 8.08325 101.984 6.80347 101.984 5.22479C101.984 3.64611 100.702 2.36633 99.1216 2.36633C97.5406 2.36633 96.259 3.64611 96.259 5.22479C96.259 6.80347 97.5406 8.08325 99.1216 8.08325Z" fill="#F2F2F2"/>
<path d="M99.1216 19.4753C100.702 19.4753 101.984 18.1956 101.984 16.6169C101.984 15.0382 100.702 13.7584 99.1216 13.7584C97.5406 13.7584 96.259 15.0382 96.259 16.6169C96.259 18.1956 97.5406 19.4753 99.1216 19.4753Z" fill="#F2F2F2"/>
<path d="M99.1216 30.8675C100.702 30.8675 101.984 29.5878 101.984 28.0091C101.984 26.4304 100.702 25.1506 99.1216 25.1506C97.5406 25.1506 96.259 26.4304 96.259 28.0091C96.259 29.5878 97.5406 30.8675 99.1216 30.8675Z" fill="#F2F2F2"/>
<path d="M99.1216 42.2596C100.702 42.2596 101.984 40.9799 101.984 39.4012C101.984 37.8225 100.702 36.5427 99.1216 36.5427C97.5406 36.5427 96.259 37.8225 96.259 39.4012C96.259 40.9799 97.5406 42.2596 99.1216 42.2596Z" fill="#F2F2F2"/>
<path d="M111.073 8.08325C112.654 8.08325 113.935 6.80347 113.935 5.22479C113.935 3.64611 112.654 2.36633 111.073 2.36633C109.492 2.36633 108.21 3.64611 108.21 5.22479C108.21 6.80347 109.492 8.08325 111.073 8.08325Z" fill="#F2F2F2"/>
<path d="M111.073 19.4753C112.654 19.4753 113.935 18.1956 113.935 16.6169C113.935 15.0382 112.654 13.7584 111.073 13.7584C109.492 13.7584 108.21 15.0382 108.21 16.6169C108.21 18.1956 109.492 19.4753 111.073 19.4753Z" fill="#F2F2F2"/>
<path d="M111.073 30.8675C112.654 30.8675 113.935 29.5878 113.935 28.0091C113.935 26.4304 112.654 25.1506 111.073 25.1506C109.492 25.1506 108.21 26.4304 108.21 28.0091C108.21 29.5878 109.492 30.8675 111.073 30.8675Z" fill="#F2F2F2"/>
<path d="M111.073 42.2596C112.654 42.2596 113.935 40.9799 113.935 39.4012C113.935 37.8225 112.654 36.5427 111.073 36.5427C109.492 36.5427 108.21 37.8225 108.21 39.4012C108.21 40.9799 109.492 42.2596 111.073 42.2596Z" fill="#F2F2F2"/>
<path d="M80.1382 200.866C90.4088 200.866 98.7347 192.552 98.7347 182.296C98.7347 172.04 90.4088 163.726 80.1382 163.726C69.8677 163.726 61.5417 172.04 61.5417 182.296C61.5417 192.552 69.8677 200.866 80.1382 200.866Z" fill="#2F2E41"/>
<path d="M73.0666 194.497L64.0159 199.023L66.5456 204.067L75.5963 199.541L73.0666 194.497Z" fill="#2F2E41"/>
<path d="M67.7388 203.555C68.2756 202.742 66.9509 200.925 64.7802 199.495C62.6094 198.066 60.4146 197.566 59.8778 198.379C59.3411 199.192 60.6658 201.01 62.8365 202.439C65.0073 203.868 67.2021 204.368 67.7388 203.555Z" fill="#2F2E41"/>
<path d="M87.2099 194.497L84.6802 199.541L93.7309 204.067L96.2606 199.023L87.2099 194.497Z" fill="#2F2E41"/>
<path d="M97.4401 202.439C99.6109 201.01 100.935 199.192 100.399 198.379C99.862 197.566 97.6672 198.066 95.4964 199.495C93.3257 200.925 92.001 202.742 92.5378 203.555C93.0745 204.368 95.2693 203.868 97.4401 202.439Z" fill="#2F2E41"/>
<path d="M78.8365 184.1C82.3467 184.1 85.1922 181.259 85.1922 177.754C85.1922 174.248 82.3467 171.407 78.8365 171.407C75.3263 171.407 72.4807 174.248 72.4807 177.754C72.4807 181.259 75.3263 184.1 78.8365 184.1Z" fill="white"/>
<path d="M75.115 177.907C77.3827 176.182 79.946 178.742 78.2189 181.007C75.9512 182.731 73.3878 180.172 75.115 177.907Z" fill="#3F3D56"/>
<path d="M94.8083 162.094C95.088 155.219 89.1544 149.396 81.5552 149.088C73.9561 148.779 67.5691 154.103 67.2894 160.978C67.0097 167.852 72.2921 169.414 79.8913 169.723C87.4904 170.031 94.5287 168.969 94.8083 162.094Z" fill="#CCCCCC"/>
<path d="M105.528 192.02C106.751 190.971 105.031 186.967 101.686 183.076C98.341 179.185 94.6377 176.881 93.4145 177.93C92.1913 178.978 93.9113 182.983 97.2563 186.873C100.601 190.764 104.305 193.068 105.528 192.02Z" fill="#2F2E41"/>
<path d="M63.0722 186.873C66.4172 182.983 68.1372 178.978 66.914 177.93C65.6908 176.881 61.9875 179.185 58.6426 183.076C55.2976 186.967 53.5775 190.971 54.8008 192.02C56.024 193.068 59.7272 190.764 63.0722 186.873Z" fill="#2F2E41"/>
<path d="M85.2458 189.614C85.346 190.161 85.3373 190.722 85.2202 191.266C85.103 191.809 84.8798 192.324 84.5632 192.782C84.2466 193.239 83.8428 193.63 83.375 193.931C82.9072 194.232 82.3845 194.439 81.8367 194.538C81.289 194.638 80.727 194.629 80.1828 194.511C79.6386 194.394 79.1229 194.17 78.6652 193.854C78.2076 193.537 77.8168 193.134 77.5154 192.666C77.214 192.199 77.0077 191.677 76.9085 191.13L76.907 191.122C76.4902 188.822 78.2705 188.009 80.5732 187.592C82.8759 187.176 84.829 187.315 85.2458 189.614Z" fill="white"/>
<path d="M276.784 144.682H251.991C251.991 144.975 251.875 145.256 251.667 145.463C251.459 145.67 251.178 145.786 250.885 145.787H226.548C226.204 146.045 225.891 146.342 225.614 146.671C224.782 147.661 224.328 148.914 224.33 150.207V151.091C224.331 152.556 224.914 153.961 225.952 154.997C226.989 156.033 228.396 156.615 229.863 156.616H276.784C278.251 156.615 279.657 156.032 280.695 154.996C281.732 153.96 282.315 152.556 282.317 151.091V150.207C282.315 148.742 281.731 147.338 280.694 146.302C279.657 145.266 278.25 144.684 276.784 144.682Z" fill="#3F3D56"/>
<path d="M256.42 156.396H250.666V197.062H256.42V156.396Z" fill="#3F3D56"/>
<path d="M272.798 196.86C272.798 197.481 264.078 197.1 253.321 197.1C242.565 197.1 233.845 197.481 233.845 196.86C233.845 196.239 242.565 191.316 253.321 191.316C264.078 191.316 272.798 196.239 272.798 196.86Z" fill="#3F3D56"/>
<path d="M275.699 145.955L274.734 139.926C274.612 139.166 274.193 138.485 273.569 138.034C272.944 137.582 272.167 137.396 271.405 137.517L261.45 139.103L244.4 141.822L238.853 142.706H250.884C251.178 142.706 251.459 142.822 251.667 143.03C251.874 143.237 251.991 143.518 251.991 143.811V144.682C251.991 144.975 251.874 145.256 251.667 145.463C251.459 145.67 251.178 145.787 250.884 145.787H220.267C219.84 145.986 219.47 146.29 219.191 146.671C218.956 146.98 218.786 147.334 218.691 147.711C218.597 148.087 218.58 148.48 218.642 148.863L218.917 150.578L219.249 152.66L219.607 154.897C219.729 155.655 220.147 156.333 220.77 156.784C221.392 157.235 222.168 157.421 222.927 157.301L230.837 156.041L253.651 152.404L273.287 149.274C274.046 149.151 274.726 148.732 275.178 148.111C275.629 147.489 275.817 146.714 275.699 145.955Z" fill="#27E0A6"/>
<path d="M230.231 146.671C229.94 146.285 229.554 145.98 229.111 145.787H220.648C220.202 145.979 219.815 146.284 219.523 146.671C219.129 147.174 218.916 147.795 218.917 148.434V182.12C218.918 182.888 219.224 183.623 219.767 184.166C220.311 184.709 221.048 185.014 221.816 185.015H227.938C228.707 185.014 229.443 184.709 229.987 184.166C230.53 183.623 230.836 182.888 230.837 182.12V148.434C230.838 147.795 230.624 147.175 230.231 146.671Z" fill="#27E0A6"/>
<path d="M248.654 89.2972L248.596 89.222L244.798 84.5499C244.596 84.2993 244.352 84.0854 244.077 83.9179C243.931 83.8192 243.773 83.739 243.608 83.6792C243.365 83.5822 243.11 83.5197 242.851 83.4935C242.677 83.4751 242.502 83.4721 242.328 83.4846C242.325 83.485 242.322 83.4866 242.319 83.489C241.733 83.5322 241.173 83.7544 240.717 84.1255L232.922 90.4375L222.905 98.5529L207.957 110.664L206.868 111.548H225.782L226.876 110.664L230.492 107.734L230.749 107.53L248.215 93.3813L248.229 93.3725C248.588 93.0835 248.872 92.712 249.057 92.2895C249.178 92.0129 249.256 91.7192 249.287 91.4188C249.327 91.0409 249.292 90.6588 249.183 90.2946C249.074 89.9305 248.894 89.5914 248.654 89.2972Z" fill="#27E0A6"/>
<path d="M248.596 89.222C248.352 88.0309 247.81 86.9209 247.02 85.9953C246.233 85.0627 245.22 84.3474 244.077 83.9179C243.899 83.8516 243.727 83.7897 243.55 83.7411C243.15 83.6223 242.742 83.5365 242.328 83.4847C242.325 83.485 242.322 83.4866 242.319 83.4891C240.457 83.2742 238.584 83.7909 237.096 84.9301L223.613 95.2201C223.327 95.4758 223.095 95.7864 222.932 96.1335C222.768 96.4805 222.676 96.8569 222.662 97.2402C222.641 97.6906 222.724 98.1399 222.905 98.5529C222.949 98.6458 222.998 98.7386 223.051 98.827C223.154 99.0065 223.279 99.1727 223.423 99.322L225.583 101.744L230.607 107.371L230.749 107.53L231.072 107.897C231.329 108.179 231.639 108.407 231.985 108.568C232.33 108.73 232.705 108.822 233.086 108.838C233.467 108.855 233.848 108.797 234.206 108.666C234.565 108.536 234.894 108.336 235.175 108.078L246.803 95.6047C247.407 94.957 247.886 94.2032 248.215 93.3814C248.746 92.0619 248.879 90.6159 248.596 89.222Z" fill="#2F2E41"/>
<path d="M253.737 73.2164C265.99 73.2164 275.923 63.2974 275.923 51.0618C275.923 38.8261 265.99 28.9071 253.737 28.9071C241.484 28.9071 231.551 38.8261 231.551 51.0618C231.551 63.2974 241.484 73.2164 253.737 73.2164Z" fill="#27E0A6"/>
<path d="M262.057 142.905L261.451 139.103L261.092 136.871C260.97 136.112 260.551 135.433 259.928 134.982C259.305 134.531 258.528 134.346 257.768 134.467L241.642 137.035L237.269 137.733L236.384 137.875V142.706H250.885C251.178 142.706 251.459 142.822 251.667 143.03C251.874 143.237 251.991 143.518 251.991 143.811V144.682C251.991 144.975 251.874 145.256 251.667 145.463C251.459 145.67 251.178 145.787 250.885 145.787H204.996C204.996 145.795 205 145.804 205 145.813L205.275 147.528L205.965 151.842C206.087 152.6 206.505 153.279 207.127 153.73C207.75 154.18 208.526 154.366 209.285 154.247L217.195 152.987L218.917 152.713L219.249 152.66L230.837 150.812L238.721 149.553L251.23 147.559L251.416 147.528L259.645 146.22C260.404 146.098 261.084 145.681 261.536 145.06C261.989 144.438 262.176 143.664 262.057 142.905Z" fill="#27E0A6"/>
<path d="M283.932 126.647C283.932 144.708 282.095 155.511 253.766 152.417C253.726 152.412 253.691 152.408 253.651 152.404C248.598 151.905 243.601 150.951 238.721 149.553C236.184 148.813 233.719 147.849 231.355 146.671C230.797 146.388 230.262 146.092 229.735 145.787H250.884C251.178 145.787 251.459 145.67 251.667 145.463C251.874 145.256 251.991 144.975 251.991 144.682V143.811C251.991 143.518 251.874 143.237 251.667 143.03C251.459 142.822 251.178 142.706 250.884 142.706H236.384V114.788C236.382 113.929 236.04 113.106 235.432 112.499C234.824 111.891 233.999 111.549 233.139 111.548H233.736C233.838 111.256 233.94 110.96 234.051 110.664C235.126 107.681 235.021 105.334 236.548 102.412C238.646 98.3807 238.659 94.3274 241.417 90.9195C243.471 88.3868 237.18 85.6241 239.491 83.7234C243.931 80.0635 248.764 77.8004 253.669 77.8004C271.755 77.8004 283.932 108.587 283.932 126.647Z" fill="#2F2E41"/>
<path d="M254.203 59.273L254.226 58.4451C252.683 58.4023 251.324 58.3056 250.302 57.5602C250.012 57.3368 249.774 57.0538 249.604 56.7303C249.433 56.4069 249.335 56.0506 249.315 55.6857C249.297 55.4627 249.33 55.2386 249.413 55.0308C249.496 54.823 249.626 54.637 249.793 54.4875C250.471 53.9154 251.562 54.1006 252.358 54.4648L253.044 54.7789L251.728 45.1791L250.907 45.2915L252.026 53.4574C251.568 53.2877 251.074 53.2352 250.591 53.3047C250.107 53.3742 249.649 53.5634 249.257 53.8552C248.994 54.0848 248.787 54.3721 248.654 54.6947C248.52 55.0173 248.462 55.3664 248.486 55.7147C248.51 56.205 248.642 56.6841 248.871 57.1184C249.1 57.5527 249.421 57.9317 249.813 58.2288C251.126 59.1869 252.832 59.2346 254.203 59.273Z" fill="#2F2E41"/>
<path d="M246.845 45.9956H242.379V46.8235H246.845V45.9956Z" fill="#2F2E41"/>
<path d="M260.939 45.9956H256.474V46.8235H260.939V45.9956Z" fill="#2F2E41"/>
<path d="M266.926 95.6312L265.169 94.4112L261.897 92.1437C261.265 91.707 260.485 91.5386 259.728 91.6753C258.971 91.812 258.3 92.2427 257.86 92.873L247.197 108.198L237.269 122.466L236.384 123.739V142.706H236.463C237.153 142.637 237.796 142.324 238.273 141.822C238.376 141.716 238.469 141.603 238.552 141.481L241.642 137.035L249.278 126.059L257.192 114.691L257.945 113.608L267.647 99.6624C267.7 99.5884 267.749 99.5117 267.794 99.4325C267.838 99.3567 267.878 99.2785 267.913 99.1983C268.191 98.5822 268.245 97.8882 268.065 97.2367C267.884 96.5852 267.482 96.0172 266.926 95.6312Z" fill="#27E0A6"/>
<path d="M266.957 89.5668C266.644 89.3616 266.316 89.1813 265.974 89.0276C264.462 88.3355 262.757 88.1845 261.147 88.5998C259.536 89.0152 258.118 89.9717 257.13 91.3084L247.056 104.949C246.853 105.274 246.718 105.635 246.657 106.013C246.596 106.391 246.611 106.777 246.7 107.149C246.79 107.52 246.953 107.871 247.18 108.179C247.406 108.487 247.692 108.748 248.021 108.945L257.192 114.691L257.307 114.762L257.768 115.049C258.426 115.446 259.215 115.567 259.963 115.385C260.71 115.203 261.355 114.732 261.756 114.077L268.869 99.9763L268.989 99.742L268.993 99.7376L269.431 98.858C270.23 97.2755 270.42 95.4552 269.964 93.7425C269.508 92.0297 268.438 90.5438 266.957 89.5668Z" fill="#2F2E41"/>
<path d="M205.274 145.787V179.066C205.276 179.833 205.581 180.569 206.125 181.112C206.668 181.655 207.405 181.96 208.174 181.961H214.295C215.064 181.96 215.801 181.655 216.344 181.112C216.888 180.569 217.194 179.833 217.195 179.066V145.787H205.274Z" fill="#27E0A6"/>
<path d="M250.885 141.822H237.269V114.788C237.268 113.695 236.832 112.647 236.058 111.873C235.284 111.1 234.234 110.665 233.139 110.664H182.647C181.551 110.664 180.5 111.099 179.725 111.872C178.95 112.645 178.514 113.694 178.512 114.788V142.547C178.514 143.641 178.95 144.69 179.725 145.463C180.5 146.236 181.551 146.67 182.647 146.671H250.885C250.956 146.671 251.022 146.666 251.088 146.662C251.15 146.657 251.212 146.644 251.274 146.635C251.726 146.544 252.132 146.3 252.424 145.944C252.716 145.588 252.876 145.142 252.877 144.682V143.811C252.877 143.283 252.667 142.777 252.293 142.404C251.92 142.031 251.413 141.822 250.885 141.822ZM250.885 145.787H182.647C181.786 145.786 180.96 145.445 180.351 144.838C179.742 144.23 179.399 143.406 179.398 142.547V114.788C179.399 113.929 179.742 113.105 180.351 112.497C180.96 111.89 181.786 111.549 182.647 111.548H233.139C233.999 111.549 234.824 111.891 235.432 112.499C236.04 113.106 236.382 113.929 236.384 114.788V142.706H250.885C251.178 142.706 251.46 142.822 251.667 143.03C251.875 143.237 251.991 143.518 251.991 143.811V144.682C251.991 144.975 251.874 145.256 251.667 145.463C251.459 145.67 251.178 145.786 250.885 145.787Z" fill="#3F3D56"/>
<path d="M207.891 132.067C209.771 132.067 211.295 130.545 211.295 128.668C211.295 126.791 209.771 125.269 207.891 125.269C206.011 125.269 204.487 126.791 204.487 128.668C204.487 130.545 206.011 132.067 207.891 132.067Z" fill="#27E0A6"/>
<path d="M237.256 142.29H236.37V146.268H237.256V142.29Z" fill="#3F3D56"/>
<path d="M100.283 115.083C102.162 110.173 102.434 105.714 100.891 105.125C99.3469 104.536 96.5719 108.039 94.6924 112.949C92.8129 117.86 92.5407 122.318 94.0844 122.907C95.6281 123.496 98.4031 119.993 100.283 115.083Z" fill="#2F2E41"/>
<path d="M98.6844 131.441C100.371 121.063 93.3132 111.285 82.9207 109.601C72.5282 107.917 62.7362 114.964 61.0497 125.342C59.3633 135.72 66.4209 145.498 76.8134 147.182C87.2059 148.866 96.9979 141.818 98.6844 131.441Z" fill="#2F2E41"/>
<path d="M76.9714 143.331H71.1799V153.693H76.9714V143.331Z" fill="#2F2E41"/>
<path d="M88.5541 143.331H82.7627V153.693H88.5541V143.331Z" fill="#2F2E41"/>
<path d="M76.0061 155.621C78.6716 155.621 80.8323 154.811 80.8323 153.813C80.8323 152.815 78.6716 152.006 76.0061 152.006C73.3407 152.006 71.1799 152.815 71.1799 153.813C71.1799 154.811 73.3407 155.621 76.0061 155.621Z" fill="#2F2E41"/>
<path d="M87.5889 155.38C90.2543 155.38 92.4151 154.571 92.4151 153.572C92.4151 152.574 90.2543 151.765 87.5889 151.765C84.9235 151.765 82.7627 152.574 82.7627 153.572C82.7627 154.571 84.9235 155.38 87.5889 155.38Z" fill="#2F2E41"/>
<path d="M80.5411 130.075C84.1378 129.97 86.9679 126.973 86.8622 123.381C86.7566 119.789 83.7551 116.963 80.1583 117.069C76.5615 117.174 73.7314 120.171 73.8371 123.763C73.9428 127.355 76.9443 130.181 80.5411 130.075Z" fill="white"/>
<path d="M80.3495 125.741C81.549 125.741 82.5213 124.77 82.5213 123.572C82.5213 122.374 81.549 121.403 80.3495 121.403C79.1501 121.403 78.1777 122.374 78.1777 123.572C78.1777 124.77 79.1501 125.741 80.3495 125.741Z" fill="#3F3D56"/>
<path d="M61.3748 110.688C59.8356 103.804 64.7561 96.8484 72.3651 95.1517C79.9741 93.4551 87.3902 97.6602 88.9295 104.544C90.4688 111.428 85.426 113.967 77.817 115.663C70.208 117.36 62.9141 117.572 61.3748 110.688Z" fill="#27E0A6"/>
<path d="M67.0074 123.637C67.7156 122.146 64.4339 119.111 59.6775 116.859C54.9211 114.606 50.4912 113.988 49.783 115.48C49.0748 116.971 52.3565 120.005 57.1129 122.258C61.8693 124.511 66.2992 125.128 67.0074 123.637Z" fill="#2F2E41"/>
<path d="M70.5032 135.259C70.5032 137.122 75.3073 140.801 80.6382 140.801C85.9691 140.801 90.9673 135.556 90.9673 133.693C90.9673 131.829 85.969 134.054 80.6382 134.054C75.3073 134.054 70.5032 133.396 70.5032 135.259Z" fill="white"/>
<path d="M116.656 124.311L102.623 127.046C102.396 127.091 102.161 127.084 101.937 127.025C101.713 126.966 101.506 126.856 101.331 126.705C101.152 126.552 101.01 126.36 100.917 126.144C100.824 125.928 100.781 125.693 100.792 125.458C101.031 119.712 99.913 113.991 97.5272 108.757C97.4284 108.543 97.3798 108.31 97.3849 108.075C97.39 107.839 97.4488 107.608 97.5568 107.399C97.6622 107.193 97.8133 107.014 97.9986 106.875C98.1838 106.736 98.3984 106.641 98.6259 106.598L112.658 103.862C113.017 103.793 113.389 103.853 113.707 104.032C114.026 104.211 114.27 104.497 114.397 104.839C116.473 110.597 117.654 116.638 117.899 122.753C117.91 123.118 117.791 123.475 117.563 123.76C117.336 124.045 117.014 124.241 116.656 124.311Z" fill="#6DB5E8"/>
<path d="M55.1283 137.13L41.0959 139.865C40.8686 139.91 40.6341 139.902 40.4101 139.843C40.1861 139.784 39.9786 139.675 39.8033 139.523C39.6245 139.37 39.483 139.178 39.3897 138.962C39.2964 138.746 39.2537 138.512 39.2648 138.277C39.5042 132.531 38.3857 126.809 35.9998 121.575C35.9011 121.361 35.8524 121.128 35.8575 120.893C35.8627 120.658 35.9215 120.427 36.0295 120.218C36.1349 120.012 36.286 119.832 36.4712 119.693C36.6565 119.555 36.8711 119.46 37.0986 119.416L51.1311 116.681C51.4898 116.612 51.8614 116.672 52.1798 116.851C52.4982 117.029 52.7428 117.315 52.8699 117.657C54.9456 123.415 56.1266 129.457 56.3718 135.572C56.3828 135.936 56.2639 136.293 56.0361 136.578C55.8084 136.864 55.4867 137.059 55.1283 137.13Z" fill="#CCCCCC"/>
<path d="M260.12 35.508C256.126 37.2886 251.594 37.4459 247.485 35.9466C244.472 34.7932 241.862 32.7878 239.972 30.1759C238.083 27.5639 236.997 24.4587 236.848 21.2402L235.849 21.8127L240.061 24.7722C240.149 24.8227 240.247 24.8525 240.348 24.8593C240.45 24.8662 240.551 24.8499 240.645 24.8117C240.739 24.7735 240.823 24.7144 240.891 24.6389C240.959 24.5634 241.008 24.4735 241.036 24.376C241.332 23.1923 241.869 22.0823 242.614 21.1153C243.359 20.1482 244.295 19.3449 245.365 18.7555C247.711 17.4493 250.437 16.9963 253.08 17.474C258.553 18.3606 263.48 22.004 266.685 26.4219C268.435 28.8254 269.731 31.5274 270.511 34.3952C270.562 34.5594 270.675 34.6971 270.827 34.7794C270.978 34.8618 271.155 34.8822 271.321 34.8365C271.487 34.7908 271.629 34.6825 271.717 34.5344C271.805 34.3863 271.831 34.21 271.791 34.0427C270.264 28.4675 266.909 23.5646 262.262 20.1182C257.506 16.5915 250.847 14.4599 245.252 17.3068C242.59 18.6618 240.423 21.074 239.756 24.0234L240.731 23.6272L236.519 20.6677C236.418 20.6101 236.303 20.5799 236.187 20.58C236.071 20.5802 235.956 20.6107 235.855 20.6685C235.754 20.7264 235.67 20.8095 235.611 20.9098C235.553 21.0101 235.521 21.124 235.52 21.2402C235.728 25.7068 237.58 29.9395 240.721 33.1269C244.003 36.4029 248.445 38.2581 253.086 38.2916C255.744 38.3208 258.375 37.7612 260.791 36.653C261.567 36.2981 260.893 35.1548 260.12 35.508Z" fill="#2F2E41"/>
<path d="M73.7772 201.63L59.7448 204.365C59.5175 204.41 59.283 204.403 59.059 204.344C58.835 204.285 58.6275 204.175 58.4522 204.024C58.2734 203.871 58.132 203.679 58.0386 203.463C57.9453 203.247 57.9026 203.012 57.9137 202.777C58.1531 197.031 57.0346 191.31 54.6488 186.075C54.55 185.862 54.5013 185.629 54.5065 185.393C54.5116 185.158 54.5704 184.927 54.6784 184.718C54.7838 184.512 54.9349 184.333 55.1201 184.194C55.3054 184.055 55.52 183.96 55.7475 183.916L69.78 181.181C70.1387 181.112 70.5103 181.172 70.8287 181.351C71.1472 181.53 71.3917 181.816 71.5188 182.158C73.5945 187.916 74.7755 193.957 75.0207 200.072C75.0317 200.437 74.9128 200.793 74.6851 201.079C74.4574 201.364 74.1357 201.559 73.7772 201.63Z" fill="#27E0A6"/>
</g>
<defs>
<clipPath id="clip0_187_68">
<rect width="355" height="204.394" fill="white"/>
</clipPath>
</defs>
</svg>
